<?xml version="1.0" standalone="no"?><!DOCTYPE svg PUBLIC "-//W3C//DTD SVG 1.1//EN" "http://www.w3.org/Graphics/SVG/1.1/DTD/svg11.dtd"><svg t="1713240836856" class="icon" viewBox="0 0 1024 1024" version="1.1" xmlns="http://www.w3.org/2000/svg" p-id="2159" xmlns:xlink="http://www.w3.org/1999/xlink" width="256" height="256"><path d="M816.875 299.290625c-185.34375-87.328125-341.60625 88.846875-415.153125 0-29.109375-36.759375 35.240625-102.628125 0-148.6125-26.04375-32.175-87.328125-26.04375-127.153125 0C168.875 225.74375 98.39375 348.3125 98.39375 486.18125c0 226.715625 185.371875 409.021875 415.153125 409.021875 191.503125 0 352.35-127.153125 401.34375-297.196875 15.328125-61.284375 33.69375-232.846875-98.04375-298.715625z m43.678125 284.175c-43.903125 150.46875-186.440625 255.4875-347.00625 255.4875-197.8875 0-358.903125-158.259375-358.903125-352.771875 0-113.146875 56.615625-221.0625 151.48125-288.928125a81.95625 81.95625 0 0 1 40.8375-12.20625c4.275 0 7.340625 0.50625 9.3375 1.0125-0.478125 7.25625-4.696875 21.2625-7.36875 30.121875-9.3375 30.88125-23.4 77.5125 8.634375 118.0125l0.759375 0.95625c25.36875 30.65625 59.34375 46.209375 100.996875 46.209375 35.634375 0 72.225-11.41875 110.953125-23.5125 43.0875-13.44375 87.6375-27.365625 134.184375-27.365625a203.0625 203.0625 0 0 1 87.778125 19.40625c108.309375 54.7875 71.94375 218.41875 68.2875 233.578125z" fill="#333333" p-id="2160"></path><path d="M366.36875 450.8c0-33.69375-27.5625-61.284375-61.284375-61.284375s-61.284375 27.5625-61.284375 61.284375c0 33.69375 27.590625 61.284375 61.284375 61.284375s61.284375-27.5625 61.284375-61.284375zM366.36875 564.171875c-33.69375 0-61.284375 27.5625-61.284375 61.284375s27.5625 61.284375 61.284375 61.284375c33.69375 0 61.284375-27.5625 61.284375-61.284375s-27.5625-61.284375-61.284375-61.284375zM547.26875 625.45625c-33.69375 0-61.284375 27.5625-61.284375 61.284375s27.5625 61.284375 61.284375 61.284375c33.69375 0 61.284375-27.5625 61.284375-61.284375s-27.5625-61.284375-61.284375-61.284375zM678.021875 398.7125c-50.540625 0-91.9125 41.371875-91.9125 91.9125s41.371875 91.9125 91.9125 91.9125c52.0875 0 91.9125-41.371875 91.9125-91.9125s-41.371875-91.9125-91.9125-91.9125z" fill="#333333" p-id="2161"></path></svg>