<?xml version="1.0" standalone="no"?><!DOCTYPE svg PUBLIC "-//W3C//DTD SVG 1.1//EN" "http://www.w3.org/Graphics/SVG/1.1/DTD/svg11.dtd"><svg t="1713240827621" class="icon" viewBox="0 0 1024 1024" version="1.1" xmlns="http://www.w3.org/2000/svg" p-id="1687" xmlns:xlink="http://www.w3.org/1999/xlink" width="256" height="256"><path d="M680.75 437.00000029a243.74999971 243.74999971 0 1 1 0 487.49999942 243.74999971 243.74999971 0 0 1 0-487.49999942zM737 136.99999971a150.00000029 150.00000029 0 0 1 149.81249971 142.50000058L887.00000029 287v105.37499971a37.50000029 37.50000029 0 0 1-74.7 4.3875L811.99999971 392.4125 811.99999971 287a74.99999971 74.99999971 0 0 0-69.37499971-74.8125L737 212.00000029H287a74.99999971 74.99999971 0 0 0-74.8125 69.37499971L212.00000029 287l0.03749942 314.81250029c12.63750029-5.0625 23.88750029-8.58750029 33.90000029-10.50000029 39.0375-7.49999971 79.38749971-4.42500029 120.52500029 8.92500029a37.50000029 37.50000029 0 0 1-23.175 71.36249942c-29.40000029-9.5625-56.99999971-11.66249971-83.21250058-6.6375-10.31249971 1.98749971-26.62499971 8.47500029-47.99999971 19.4625L212.00000029 737a74.99999971 74.99999971 0 0 0 69.37499971 74.8125L287 811.99999971h105.37499971a37.50000029 37.50000029 0 0 1 4.3875 74.77500058l-4.3875 0.26249942L287 887.00000029a150.00000029 150.00000029 0 0 1-149.81249971-142.50000058L136.99999971 737V287a150.00000029 150.00000029 0 0 1 142.50000058-149.81249971L287 136.99999971h450z m-56.25 375.00000029a168.75 168.75 0 1 0 0 337.5 168.75 168.75 0 0 0 0-337.5z m74.99999971 74.99999971a37.50000029 37.50000029 0 0 1 0 75.00000058h-37.49999942v112.5a37.50000029 37.50000029 0 0 1-75.00000058 0v-112.5h-37.49999942a37.50000029 37.50000029 0 0 1 0-75.00000058h149.99999942zM361.99999971 287a112.5 112.5 0 1 1 0 225 112.5 112.5 0 0 1 0-225z m0 74.99999971a37.50000029 37.50000029 0 1 0 0 75.00000058 37.50000029 37.50000029 0 0 0 0-75.00000058z" fill="#333333" p-id="1688"></path></svg>