<?xml version="1.0" standalone="no"?><!DOCTYPE svg PUBLIC "-//W3C//DTD SVG 1.1//EN" "http://www.w3.org/Graphics/SVG/1.1/DTD/svg11.dtd"><svg t="1713239613245" class="icon" viewBox="0 0 1024 1024" version="1.1" xmlns="http://www.w3.org/2000/svg" p-id="1441" xmlns:xlink="http://www.w3.org/1999/xlink" width="256" height="256"><path d="M443.79651838 422.42010894a52.63000082 52.63000082 0 1 1-105.26000164 0 52.63000082 52.63000082 0 0 1 105.26000164 0z" fill="#333333" p-id="1442"></path><path d="M226.960915 112.73792481A108.88965687 108.88965687 0 0 0 118.07125814 221.62758167v552.21574655h72.59310457V221.62758167a36.29655229 36.29655229 0 0 1 36.29655229-36.29655229h580.74483666a36.29655229 36.29655229 0 0 1 36.29655229 36.29655229v580.74483666a36.29655229 36.29655229 0 0 1-36.29655229 36.29655229H626.44076951l3.55706212 2.83113108a43.70104896 43.70104896 0 0 1-2.10520002 69.76197349H807.70575166a108.88965687 108.88965687 0 0 0 108.88965686-108.88965686V221.62758167A108.88965687 108.88965687 0 0 0 807.70575166 112.73792481H226.960915z" fill="#333333" p-id="1443"></path><path d="M637.54751451 464.3789234a36.29655229 36.29655229 0 0 0-56.91299399-2.68594487L499.91098823 554.53955929l-53.13815255-33.1024557a36.29655229 36.29655229 0 0 0-45.44328347 5.80744837l-67.36640107 75.20645637 21.6327452 19.45495201 31.65059359 25.2624004 46.24180763-48.49219388 54.37223531 33.82838673a36.29655229 36.29655229 0 0 0 46.53218005-7.04153113l70.92346317-81.44946334 88.56358758 124.13420883 59.16338023-42.17659376-115.42303627-161.59225079z" fill="#333333" p-id="1444"></path><path d="M361.18556538 672.93891285l246.09062452 196.87249964a7.25931045 7.25931045 0 0 1-4.50077248 12.92157261h-518.31476671v-72.59310459H416.42891796l-100.68663606-80.57834606 45.37069038-56.6226216z" fill="#333333" p-id="1445"></path></svg>