<?xml version="1.0" standalone="no"?><!DOCTYPE svg PUBLIC "-//W3C//DTD SVG 1.1//EN" "http://www.w3.org/Graphics/SVG/1.1/DTD/svg11.dtd"><svg t="1713239626303" class="icon" viewBox="0 0 1024 1024" version="1.1" xmlns="http://www.w3.org/2000/svg" p-id="1441" xmlns:xlink="http://www.w3.org/1999/xlink" width="256" height="256"><path d="M480.2760745 620.00147866c9.15863811-15.07652736 13.73795717-31.98478233 13.73795717-50.72476493 0-19.02178685-4.08616163-35.93004182-12.25848485-50.79521599a86.44345356 86.44345356 0 0 0-33.32335252-35.2255312c-14.09021248-8.38367642-30.29395684-12.61074017-48.54078199-12.61074017-15.07652736 0-28.88493558 3.87480843-41.49567576 11.55397424 4.93157437-10.14495299 12.46983805-22.26253572 22.61479104-36.3527482l65.51948803-90.03645775h-61.43332641L331.76523496 435.20834198a325.48390829 325.48390829 0 0 0-36.35274819 66.64670503 174.71863475 174.71863475 0 0 0-11.13126786 61.85603279c0 21.06486766 4.43841693 39.45259494 13.38570185 55.23363293 8.45412749 14.93562522 19.86719959 26.63050159 34.52102058 34.94372695l31.84388021-8.38367643 53.89506273 19.37404216c8.8063828-2.18398293 17.11960817-5.35428075 24.93967609-9.58134448 16.06284223-8.45412749 28.53268027-20.14900385 37.40951413-35.22553121zM426.59236496 530.31727622c9.3699913 9.3699913 14.09021248 22.33298678 14.09021248 38.88898644 0 16.34464648-4.8611233 29.44854409-14.44246779 39.31169282a49.38619474 49.38619474 0 0 1-37.05725883 14.4424678 50.65431386 50.65431386 0 0 1-37.40951414-14.4424678c-9.44044236-9.86314873-14.09021248-22.96704634-14.09021247-39.31169282 0-16.55599966 4.57931905-29.51899514 13.66750611-38.88898644 9.3699913-9.65179555 21.98073147-14.4424678 37.8322205-14.44246779 15.78103798 0 28.25087602 4.79067224 37.33906308 14.44246779zM711.77826556 597.73894293h38.53673113V552.15710556h-38.53673113V355.80999466h-44.8068757L530.15542668 560.32942881v37.40951412h128.22093358v65.23768379h53.33145423v-65.23768379z m-53.33145425-152.59700115v107.08561485H586.93898299l71.50782832-107.08561485z" fill="#333333" p-id="1442"></path><path d="M235.52908373 124.51915679A105.67659361 105.67659361 0 0 0 129.85249012 230.1957504v535.92123169h70.4510624V230.1957504a35.22553119 35.22553119 0 0 1 35.22553121-35.22553121h563.6084992a35.22553119 35.22553119 0 0 1 35.22553121 35.22553121v563.6084992a35.22553119 35.22553119 0 0 1-35.22553121 35.22553121H623.22128012l3.45210206 2.74759142a42.41153957 42.41153957 0 0 1-2.04308081 67.70347098H799.13758293a105.67659361 105.67659361 0 0 0 105.67659361-105.67659361V230.1957504A105.67659361 105.67659361 0 0 0 799.13758293 124.51915679H235.52908373z" fill="#333333" p-id="1443"></path><path d="M365.7930981 668.19000534l238.82910155 191.06328123a7.04510625 7.04510625 0 0 1-4.36796587 12.54028911h-503.02058554v-70.4510624H419.40635659l-97.71562354-78.20067926 44.03191399-54.95182868z" fill="#333333" p-id="1444"></path></svg>