<?xml version="1.0" standalone="no"?><!DOCTYPE svg PUBLIC "-//W3C//DTD SVG 1.1//EN" "http://www.w3.org/Graphics/SVG/1.1/DTD/svg11.dtd"><svg t="1713239540178" class="icon" viewBox="0 0 1024 1024" version="1.1" xmlns="http://www.w3.org/2000/svg" p-id="1441" xmlns:xlink="http://www.w3.org/1999/xlink" width="256" height="256"><path d="M230.75000027 476.84374973a105.46875 105.46875 0 0 0 105.46875-105.46875V301.0625a105.46875 105.46875 0 0 0-210.9375 0v70.31249973a105.46875 105.46875 0 0 0 105.46875 105.46875zM195.59375 301.0625a35.15625027 35.15625027 0 0 1 70.31249973 0v70.31249973a35.15625027 35.15625027 0 0 1-70.31249973 0z m562.50000027 0a105.46875 105.46875 0 0 0-210.9375 0v70.31249973a105.46875 105.46875 0 0 0 210.9375 0z m-70.31250054 70.31249973a35.15625027 35.15625027 0 0 1-70.31249973 0V301.0625a35.15625027 35.15625027 0 0 1 70.31249973 0z m-246.09374946 105.46875a35.15625027 35.15625027 0 0 1-35.15625027-35.15624946V230.75000027a35.15625027 35.15625027 0 0 1 70.31249973 0v210.9375a35.15625027 35.15625027 0 0 1-35.15624946 35.15624946z m457.03124946-246.09374946v210.9375a35.15625027 35.15625027 0 0 1-70.31249973 0V230.75000027a35.15625027 35.15625027 0 0 1 70.31249973 0zM336.21875027 722.9375v-70.31249973a105.46875 105.46875 0 0 0-210.9375 0v70.31249973a105.46875 105.46875 0 0 0 210.9375 0z m-140.62500027 0v-70.31249973a35.15625027 35.15625027 0 0 1 70.31249973 0v70.31249973a35.15625027 35.15625027 0 0 1-70.31249973 0z m210.9375 0a105.46875 105.46875 0 0 0 210.9375 0v-70.31249973a105.46875 105.46875 0 0 0-210.9375 0z m70.31249973-70.31249973a35.15625027 35.15625027 0 0 1 70.31250054 0v70.31249973a35.15625027 35.15625027 0 0 1-70.31250054 0z m421.875-70.31250054v210.9375a35.15625027 35.15625027 0 0 1-70.31249973 0v-210.9375a35.15625027 35.15625027 0 0 1 70.31249973 0z m-175.78124973-35.15624946a35.15625027 35.15625027 0 0 1 35.15625027 35.15624946v210.9375a35.15625027 35.15625027 0 0 1-70.31250054 0v-210.9375a35.15625027 35.15625027 0 0 1 35.15625027-35.15624946z" fill="#333333" p-id="1442"></path></svg>