<?xml version="1.0" standalone="no"?><!DOCTYPE svg PUBLIC "-//W3C//DTD SVG 1.1//EN" "http://www.w3.org/Graphics/SVG/1.1/DTD/svg11.dtd"><svg t="1713239575899" class="icon" viewBox="0 0 1024 1024" version="1.1" xmlns="http://www.w3.org/2000/svg" p-id="1441" xmlns:xlink="http://www.w3.org/1999/xlink" width="256" height="256"><path d="M138.85619583 88.81931118l67.89510971 761.7421671 304.79165932 84.61921054 305.58723901-84.73770114 68.03052753-761.62367649-746.28760834 0zM758.93439553 801.96340798l-245.66485347 68.08130921 0 0.38932623-0.64323465-0.1861995-0.64323464 0.1861995 0-0.38932623-245.66485346-68.08130921-58.06039052-650.86882664 608.73695725 0-58.06039051 650.86882664zM626.68196667 527.0483053l-10.79957117 121.13124035-104.32250342 28.16690665-104.03474053-28.03148882-6.65240043-74.58136459-93.8106951 0 13.0847469 146.72520842 191.81934264 53.04993115 191.20996242-53.04993115 25.66167696-286.81494366-340.50810944 0-8.51439546-95.67269012 357.5030459 0 8.36205042-93.42136886-467.98706014 0 25.20464182 282.51542786z" fill="#333333" p-id="1442"></path></svg>