<?xml version="1.0" standalone="no"?><!DOCTYPE svg PUBLIC "-//W3C//DTD SVG 1.1//EN" "http://www.w3.org/Graphics/SVG/1.1/DTD/svg11.dtd"><svg t="1713239554587" class="icon" viewBox="0 0 1024 1024" version="1.1" xmlns="http://www.w3.org/2000/svg" p-id="1441" xmlns:xlink="http://www.w3.org/1999/xlink" width="256" height="256"><path d="M336.87026709 300.49773263l0 70.40131889-140.65348249-0.04971882 0.04971826 281.25724667 351.50941025 5.9e-7 0.04971883-210.95536486 70.30188123 0-0.04971825 210.95536427a70.31249973 70.31249973 0 0 1-70.30188181 70.30188181L196.31622111 722.45818002a70.31249973 70.31249973 0 0 1-70.30188182-70.30188181L125.9149028 370.84933328a70.31249973 70.31249973 0 0 1 70.3018818-70.30188182l140.70320073-5.8e-7zM829.08287803 300.49773263a70.31249973 70.31249973 0 0 1 70.30188183 70.30188182l-0.04971825 281.35668318a70.31249973 70.31249973 0 0 1-70.25216358 70.25216355L688.42939558 722.45818002l0.04971824-70.35160065 140.60376421 5.9e-7-0.04971825-281.25724668-351.50941024-5.8e-7-0.04971882 210.95536486-70.30188123 0 0.04971825-210.95536428a70.31249973 70.31249973 0 0 1 70.3018818-70.30188182L829.03315978 300.54745088z" fill="#333333" p-id="1442"></path></svg>