<?xml version="1.0" standalone="no"?><!DOCTYPE svg PUBLIC "-//W3C//DTD SVG 1.1//EN" "http://www.w3.org/Graphics/SVG/1.1/DTD/svg11.dtd"><svg t="1713240232809" class="icon" viewBox="0 0 1024 1024" version="1.1" xmlns="http://www.w3.org/2000/svg" p-id="1441" xmlns:xlink="http://www.w3.org/1999/xlink" width="256" height="256"><path d="M756.81797453 592.09515872a12.61948322 12.61948322 0 0 0-13.62904189 2.52389663l-151.43379867 151.43379868a12.61948322 12.61948322 0 0 0 9.08602791 21.70551116h151.43379869a12.61948322 12.61948322 0 0 0 12.61948321-12.61948325v-151.43379865a12.61948322 12.61948322 0 0 0-8.07646925-11.60992457z" fill="#333333" p-id="1442"></path><path d="M764.38966445 130.22207278H259.61033555a126.19483222 126.19483222 0 0 0-126.19483223 126.19483221v504.77932891A126.19483222 126.19483222 0 0 0 259.61033555 887.39106614h504.7793289a126.19483222 126.19483222 0 0 0 126.19483223-126.19483224v-504.77932891A126.19483222 126.19483222 0 0 0 764.38966445 130.22207278z m75.71689936 630.97416112A75.71689933 75.71689933 0 0 1 764.38966445 836.91313322H259.61033555a75.71689933 75.71689933 0 0 1-75.71689936-75.71689932v-504.77932891A75.71689933 75.71689933 0 0 1 259.61033555 180.70000566h504.7793289a75.71689933 75.71689933 0 0 1 75.71689935 75.71689933z" fill="#333333" p-id="1443"></path><path d="M310.08826842 372.01137132h403.82346316a25.23896645 25.23896645 0 0 0-1e-8-50.47793291H310.08826842a25.23896645 25.23896645 0 0 0 1e-8 50.47793291zM310.08826842 538.08377053h403.82346316a25.23896645 25.23896645 0 0 0-1e-8-50.47793289H310.08826842a25.23896645 25.23896645 0 0 0 1e-8 50.47793289zM512 654.18301618H310.08826842a25.23896645 25.23896645 0 0 0 1e-8 50.47793289h201.91173157a25.23896645 25.23896645 0 0 0 0-50.4779329z" fill="#333333" p-id="1444"></path></svg>