<?xml version="1.0" standalone="no"?><!DOCTYPE svg PUBLIC "-//W3C//DTD SVG 1.1//EN" "http://www.w3.org/Graphics/SVG/1.1/DTD/svg11.dtd"><svg t="1713239396874" class="icon" viewBox="0 0 1024 1024" version="1.1" xmlns="http://www.w3.org/2000/svg" p-id="1441" xmlns:xlink="http://www.w3.org/1999/xlink" width="256" height="256"><path d="M823.4375 140.75H200.5625c-33.09375 0-59.8125 26.8125-59.8125 59.8125v622.78125c0 33.09375 26.8125 59.8125 59.8125 59.8125h622.78125c33.09375 0 59.8125-26.8125 59.8125-59.8125V200.5625c0.09375-33-26.71875-59.8125-59.71875-59.8125z m0 371.25v311.4375H200.5625V200.5625h622.875V512z" fill="#333333" p-id="1442"></path><path d="M700.53125 295.71875c-6.65625-6.28125-15.9375-9.28125-25.03125-7.875l-255 37.5c-13.6875 1.96875-24.28125 13.125-25.5 26.90625L373.25 588.78125c-7.6875-2.25-15.84375-3.375-24.28125-3.09375-38.8125 1.40625-70.40625 32.8125-72.09375 71.625-1.875 42.9375 32.4375 78.28125 74.90625 78.28125 40.03125 0 72.75-31.40625 74.90625-70.875 0.1875-3.65625 0.375-7.21875 0.75-10.875l20.625-223.3125 193.96875-28.5-13.125 142.78125c-7.03125-2.15625-14.4375-3.28125-22.21875-3.28125-40.5 0.09375-73.96875 32.90625-74.8125 73.40625-0.84375 42.1875 33 76.59375 75 76.59375 39.9375 0 72.5625-31.21875 74.90625-70.59375 0.1875-3.75 0.46875-7.5 0.75-11.34375l27.375-289.40625c0.65625-9.09375-2.71875-18.09375-9.375-24.46875z" fill="#333333" p-id="1443"></path></svg>