<?xml version="1.0" standalone="no"?><!DOCTYPE svg PUBLIC "-//W3C//DTD SVG 1.1//EN" "http://www.w3.org/Graphics/SVG/1.1/DTD/svg11.dtd"><svg t="1713239344159" class="icon" viewBox="0 0 1024 1024" version="1.1" xmlns="http://www.w3.org/2000/svg" p-id="1441" xmlns:xlink="http://www.w3.org/1999/xlink" width="256" height="256"><path d="M231.99999969 152h560.00000062a120 120 0 0 1 120 120v480a120 120 0 0 1-120 120H231.99999969a120 120 0 0 1-120-120V272a120 120 0 0 1 120-120z m600 573.72l-88.87999969-88.87999969a79.99999969 79.99999969 0 0 0-113.11999969 0l-25.16000062 25.15999969 130.00000031 130.00000031H792.00000031a40.00000031 40.00000031 0 0 0 39.99999938-40.00000031v-26.28zM672.00000031 471.99999969a79.99999969 79.99999969 0 1 1 0-159.99999938 79.99999969 79.99999969 0 0 1 0 159.99999938z m159.99999938 140.60000062V272a40.00000031 40.00000031 0 0 0-39.99999938-40.00000031H231.99999969a40.00000031 40.00000031 0 0 0-39.99999938 40.00000031v217.99999969l7.27999969-7.27999969a160.00000031 160.00000031 0 0 1 226.27999969 0l122.72000062 122.71999969 25.15999969-25.15999969a160.00000031 160.00000031 0 0 1 226.24000031 0l32.31999938 32.32000031zM621.72000031 792.00000031l-252.72-252.72a79.99999969 79.99999969 0 0 0-113.16 0L192.00000031 603.12000031V752a40.00000031 40.00000031 0 0 0 39.99999938 40.00000031h389.72000062z" fill="#31303D" p-id="1442"></path></svg>