<?xml version="1.0" standalone="no"?><!DOCTYPE svg PUBLIC "-//W3C//DTD SVG 1.1//EN" "http://www.w3.org/Graphics/SVG/1.1/DTD/svg11.dtd"><svg t="1713239291452" class="icon" viewBox="0 0 1024 1024" version="1.1" xmlns="http://www.w3.org/2000/svg" p-id="1441" xmlns:xlink="http://www.w3.org/1999/xlink" width="256" height="256"><path d="M540.89540496 722.20389924a40.69775422 40.69775422 0 0 0-6.51164-4.88373047 22.79074187 22.79074187 0 0 0-6.91861879-3.66279785 24.41865234 24.41865234 0 0 0-7.73257261-2.44186523 37.84891113 37.84891113 0 0 0-23.19771973 2.44186523 36.62797852 36.62797852 0 0 0-21.97678711 21.97678711 34.18611328 34.18611328 0 0 0-3.25582094 15.46514617 40.69775422 40.69775422 0 0 0 2.84884309 15.46514618 59.41872039 59.41872039 0 0 0 8.95350617 13.43025879A40.69775422 40.69775422 0 0 0 512 791.79705842a34.18611328 34.18611328 0 0 0 15.46514617-3.25582094 46.80241731 46.80241731 0 0 0 13.43025879-8.54652832A40.69775422 40.69775422 0 0 0 552.69775422 751.0993042a40.69775422 40.69775422 0 0 0-3.25582094-15.46514617 40.69775422 40.69775422 0 0 0-8.54652832-13.43025879z m-169.30265594-167.67474641a22.79074187 22.79074187 0 0 0-6.91861785-3.66279785 24.41865234 24.41865234 0 0 0-7.73257355-3.25582 35.00006804 35.00006804 0 0 0-15.87212403 0l-7.3255957 2.44186524-7.3255957 3.66279785-6.10466309 4.88373047A42.7326416 42.7326416 0 0 0 308.51123078 588.30828827a40.69775422 40.69775422 0 0 0 11.80234832 28.89540589 46.80241731 46.80241731 0 0 0 13.43025879 8.54652832A40.69775422 40.69775422 0 0 0 389.90673828 588.30828827a42.7326416 42.7326416 0 0 0-11.80234832-28.89540497z m6.51164094 167.67474641a40.69775422 40.69775422 0 0 0-13.43025879-8.54652832A40.69775422 40.69775422 0 0 0 341.06943359 710.40154999l-7.3255957 2.44186522a30.93029328 30.93029328 0 0 0-7.3255957 3.66279785 64.30245086 64.30245086 0 0 0-6.10466309 4.88373047 40.69775422 40.69775422 0 0 0-8.54652832 13.43025879 38.25588899 38.25588899 0 0 0 0 30.93029329 46.80241731 46.80241731 0 0 0 8.54652832 13.43025878A40.69775422 40.69775422 0 0 0 349.20898406 791.79705842a34.18611328 34.18611328 0 0 0 15.46514711-3.25582094 46.80241731 46.80241731 0 0 0 13.43025879-8.54652832 46.80241731 46.80241731 0 0 0 8.54652832-13.43025879 38.25588899 38.25588899 0 0 0 0-30.93029234 40.69775422 40.69775422 0 0 0-8.54652832-13.43025879z m118.43046387-171.33754426a40.69775422 40.69775422 0 0 0-13.43025879 8.54652832A42.7326416 42.7326416 0 0 0 471.30224578 588.30828827a40.69775422 40.69775422 0 0 0 56.16290039 37.44193421 46.80241731 46.80241731 0 0 0 13.43025879-8.54652832A40.69775422 40.69775422 0 0 0 552.69775422 588.30828827a42.7326416 42.7326416 0 0 0-11.80234926-28.89540497 40.69775422 40.69775422 0 0 0-44.36055113-8.54652832z m207.15156707 171.33754426a46.80241731 46.80241731 0 0 0-13.43025879-8.54652832 40.69775422 40.69775422 0 0 0-44.36055207 8.54652832 40.69775422 40.69775422 0 0 0-8.54652832 13.43025879 38.25588899 38.25588899 0 0 0 0 30.93029235 46.80241731 46.80241731 0 0 0 8.54652832 13.43025879A40.69775422 40.69775422 0 0 0 674.79101594 791.79705842a34.18611328 34.18611328 0 0 0 15.46514617-3.25582094 46.80241731 46.80241731 0 0 0 13.43025879-8.54652832 40.69775422 40.69775422 0 0 0 8.54652832-44.36055113 40.69775422 40.69775422 0 0 0-8.54652832-13.43025879zM674.79101594 222.0285031H349.20898406a40.69775422 40.69775422 0 0 0-40.69775328 40.69775422v162.79101594a40.69775422 40.69775422 0 0 0 40.69775328 40.69775329h325.58203188a40.69775422 40.69775422 0 0 0 40.69775328-40.69775329V262.72625732a40.69775422 40.69775422 0 0 0-40.69775328-40.69775422z m-40.69775422 162.79101594H389.90673828V303.42401155h244.18652344z m122.09326172-325.58203093H267.81347656a122.09326172 122.09326172 0 0 0-122.09326172 122.09326172v651.16406187a122.09326172 122.09326172 0 0 0 122.09326172 122.09326172h488.37304688a122.09326172 122.09326172 0 0 0 122.09326172-122.09326172V181.33074983a122.09326172 122.09326172 0 0 0-122.09326172-122.09326172z m40.69775422 773.25732359a40.69775422 40.69775422 0 0 1-40.69775422 40.69775422H267.81347656a40.69775422 40.69775422 0 0 1-40.69775422-40.69775422V181.33074983a40.69775422 40.69775422 0 0 1 40.69775422-40.69775422h488.37304688a40.69775422 40.69775422 0 0 1 40.69775422 40.69775422z m-99.7094977-277.96565887a22.79074187 22.79074187 0 0 0-6.91861785-3.66279785 24.41865234 24.41865234 0 0 0-7.73257356-2.44186523 35.00006804 35.00006804 0 0 0-15.87212402 0l-7.3255957 2.44186523-7.32559571 3.66279785-6.10466308 4.88373047A42.7326416 42.7326416 0 0 0 634.09326172 588.30828827a40.69775422 40.69775422 0 0 0 56.16290039 37.44193421 46.80241731 46.80241731 0 0 0 13.43025879-8.54652832A40.69775422 40.69775422 0 0 0 715.48876922 588.30828827a42.7326416 42.7326416 0 0 0-11.80234832-28.89540497z" fill="#333333" p-id="1442"></path></svg>