<?xml version="1.0" standalone="no"?><!DOCTYPE svg PUBLIC "-//W3C//DTD SVG 1.1//EN" "http://www.w3.org/Graphics/SVG/1.1/DTD/svg11.dtd"><svg t="1713239318250" class="icon" viewBox="0 0 1024 1024" version="1.1" xmlns="http://www.w3.org/2000/svg" p-id="1441" xmlns:xlink="http://www.w3.org/1999/xlink" width="256" height="256"><path d="M512 787.09962749a40.06185181 40.06185181 0 1 0-40.06185181-40.06185181 40.06185181 40.06185181 0 0 0 40.06185181 40.06185181z m200.3092572 0a40.06185181 40.06185181 0 1 0-40.06185088-40.06185181 40.06185181 40.06185181 0 0 0 40.06185088 40.06185181z m0-160.24740631a40.06185181 40.06185181 0 1 0-40.06185088-40.06185181 40.06185181 40.06185181 0 0 0 40.06185088 40.06185181z m-200.3092572 0a40.06185181 40.06185181 0 1 0-40.06185181-40.06185181 40.06185181 40.06185181 0 0 0 40.06185181 40.06185181z m280.43296082-480.74221803h-40.06185181V106.04815134a40.06185181 40.06185181 0 0 0-80.12370269 0v40.06185181H351.75259368V106.04815134a40.06185181 40.06185181 0 0 0-80.12370269 0v40.06185181H231.56703918a120.18555451 120.18555451 0 0 0-120.18555451 120.18555451v560.86592071a120.18555451 120.18555451 0 0 0 120.18555451 120.1855545h560.86592164a120.18555451 120.18555451 0 0 0 120.18555451-120.1855545V266.29555766a120.18555451 120.18555451 0 0 0-120.18555451-120.18555451z m40.06185089 681.05147522a40.06185181 40.06185181 0 0 1-40.06185089 40.06185182H231.56703918a40.06185181 40.06185181 0 0 1-40.06185089-40.06185182v-360.55666351h640.98962341z m0-440.68036621H191.5051883V266.29555766a40.06185181 40.06185181 0 0 1 40.06185088-40.06185181h40.06185181v40.06185181a40.06185181 40.06185181 0 0 0 80.12370269 0V226.23370585h320.49481264v40.06185181a40.06185181 40.06185181 0 0 0 80.12370269 0V226.23370585h40.06185181a40.06185181 40.06185181 0 0 1 40.06185089 40.06185181zM311.6907428 626.85222118a40.06185181 40.06185181 0 1 0-40.06185181-40.06185181 40.06185181 40.06185181 0 0 0 40.06185181 40.06185181z m0 160.24740631a40.06185181 40.06185181 0 1 0-40.06185181-40.06185181 40.06185181 40.06185181 0 0 0 40.06185181 40.06185181z" fill="#333333" p-id="1442"></path></svg>