<?xml version="1.0" standalone="no"?><!DOCTYPE svg PUBLIC "-//W3C//DTD SVG 1.1//EN" "http://www.w3.org/Graphics/SVG/1.1/DTD/svg11.dtd"><svg t="1713239367611" class="icon" viewBox="0 0 1024 1024" version="1.1" xmlns="http://www.w3.org/2000/svg" p-id="1441" xmlns:xlink="http://www.w3.org/1999/xlink" width="256" height="256"><path d="M143 230.75A87.75 87.75 0 0 1 230.75 143h562.5a87.75 87.75 0 0 1 87.75 87.75v562.5a87.75 87.75 0 0 1-87.75 87.75H230.75a87.75 87.75 0 0 1-87.75-87.75V230.75z m87.75-24.75a24.75 24.75 0 0 0-24.75 24.75v562.5c0 13.68 11.07 24.75 24.75 24.75h562.5a24.75 24.75 0 0 0 24.75-24.75V230.75a24.75 24.75 0 0 0-24.75-24.75H230.75z" fill="#333333" p-id="1442"></path><path d="M414.89 418.76l291.375 168.255-291.375 168.21V418.76z m63 109.125v118.215l102.375-59.085-102.375-59.13zM849.5 374.75h-675v-63h675v63z" fill="#333333" p-id="1443"></path><path d="M542.06 325.79l112.5-168.75 52.38 34.92-112.5 168.75-52.425-34.92zM317.015 325.79l112.5-168.75 52.425 34.92-112.5 168.75-52.425-34.92z" fill="#333333" p-id="1444"></path></svg>