<?xml version="1.0" standalone="no"?><!DOCTYPE svg PUBLIC "-//W3C//DTD SVG 1.1//EN" "http://www.w3.org/Graphics/SVG/1.1/DTD/svg11.dtd"><svg t="1713240409302" class="icon" viewBox="0 0 1025 1024" version="1.1" xmlns="http://www.w3.org/2000/svg" p-id="1441" xmlns:xlink="http://www.w3.org/1999/xlink" width="256.25" height="256"><path d="M925.08593723 318.64062473a30.23437473 30.23437473 0 0 0-21.26953098-8.78906196H845.98437473a30.05859375 30.05859375 0 0 0-28.12499973 19.33593696l-35.15625027 90.35156304h-5.97656223L687.78124973 267.83984375a90.35156223 90.35156223 0 0 0-76.64062473-44.47265598H257.11718777a58.53515625 58.53515625 0 0 0-42.1875 17.57812473 61.171875 61.171875 0 0 0-17.57812554 42.1875v349.27734348a120.76171875 120.76171875 0 0 0 65.03906304 107.05078125l158.203125 91.40625054a89.82421849 89.82421849 0 0 0 41.48437446 10.19531223H745.78906223A30.23437473 30.23437473 0 0 0 775.671875 810.82812527v-136.23046929h5.97656223l35.15625027 102.12890652A30.23437473 30.23437473 0 0 0 845.98437473 797.29296875h58.71093804a30.41015652 30.41015652 0 0 0 21.26953098-8.96484375 29.88281277 29.88281277 0 0 0 8.78906277-21.26953098v-427.1484375A30.23437473 30.23437473 0 0 0 925.08593723 318.64062473zM863.56250027 696.21874973L848.4453125 652.62500027l-16.17187527-47.63671929H705.35937527v166.46484402H463.484375a19.68749973 19.68749973 0 0 1-8.26171902-1.93359402l-156.97265571-90.35156223h-2.81250054a50.27343723 50.27343723 0 0 1-27.07031223-44.64843777V293.6796875H610.43750027a19.68749973 19.68749973 0 0 1 16.6992182 9.84375027l88.94531278 151.52343723 20.39062527 35.15625027h94.74609321l17.57812554-45.3515625 14.765625-40.078125zM125.28125027 356.25781277a35.15625027 35.15625027 0 0 0-35.15625027 35.15624946v210.9375a35.15625027 35.15625027 0 0 0 70.31249973 0v-210.9375a35.15625027 35.15625027 0 0 0-35.15624946-35.15624946zM309.85156277 195.59374999h210.9375a35.15625027 35.15625027 0 0 0 0-70.31249972h-210.9375a35.15625027 35.15625027 0 0 0 0 70.31249974z" fill="#333333" p-id="1442"></path><path d="M565.96484348 476.84374973h-65.39062501l40.2539068-67.5a35.15625027 35.15625027 0 0 0-60.29296929-36.03515598L408.46484402 494.42187527a35.15625027 35.15625027 0 0 0 0 35.15624946 35.15625027 35.15625027 0 0 0 30.58593749 17.57812554h70.31249974l-37.61718723 73.65234321a35.15625027 35.15625027 0 0 0 15.29296875 47.28515651 35.15625027 35.15625027 0 0 0 15.99609348 3.86718724 35.15625027 35.15625027 0 0 0 30.5859375-19.33593696l63.63281277-124.80468777a35.15625027 35.15625027 0 0 0-31.28906304-50.97656277z" fill="#333333" p-id="1443"></path></svg>