<?xml version="1.0" standalone="no"?><!DOCTYPE svg PUBLIC "-//W3C//DTD SVG 1.1//EN" "http://www.w3.org/Graphics/SVG/1.1/DTD/svg11.dtd"><svg t="1713240241836" class="icon" viewBox="0 0 1024 1024" version="1.1" xmlns="http://www.w3.org/2000/svg" p-id="1441" xmlns:xlink="http://www.w3.org/1999/xlink" width="256" height="256"><path d="M792.74741794 874.08702197H231.75571343c-79.15936723 0-143.0570776-51.15170952-143.05707673-114.37857719v-224.73210255c0-11.40431546 11.40431546-20.46068364 25.65971043-20.4606845s25.65971042 9.22407864 25.65970956 20.4606845v224.56439209c0 40.58594723 41.08907858 73.45720992 91.90536806 73.45720907h560.99170365c50.81628861 0 91.90536722-32.8712627 91.90536721-73.45720907V310.91508151c0-40.58594723-41.08907858-73.45720992-91.90536721-73.45720993H231.75571343c-50.81628861 0-91.90536722 32.8712627-91.9053672 73.45720993v100.62631449c0 11.40431546-11.40431546 20.46068364-25.65970957 20.46068363S88.6986367 422.44258008 88.6986367 411.37368552v-100.62631447c0-63.22686768 64.06541997-114.3785772 143.05707674-114.37857805h560.9917045c78.65623584 0 143.0570776 51.15170952 143.05707673 114.37857805v448.62565196c0 63.05915723-63.89770951 114.71399898-143.05707673 114.71399896z" fill="#333333" p-id="1442"></path><path d="M792.74741794 875.09328559H231.75571343c-84.52610446 0-153.11970853-55.00905179-153.11970852-122.4286835V528.10021001c0-15.76478909 15.93249955-28.51078906 35.72234222-28.51078907 19.62213135 0 35.72234135 12.74599998 35.72234135 28.51078906v224.5643921c0 36.05776312 36.72860495 65.40710449 81.84273627 65.40710448h560.99170365c45.11413131 0 81.84273628-29.34934136 81.84273541-65.40710449V303.87123969c0-36.05776312-36.72860495-65.40710449-81.84273541-65.40710449H231.75571343c-45.11413131 0-81.84273628 29.34934136-81.8427354 65.4071045v100.62631446c0 15.76478909-15.93249955 28.51078906-35.72234136 28.51078907-19.62213135 0-35.72234135-12.74599998-35.72234221-28.51078907v-100.62631446c0-67.58734131 68.76131537-122.42868265 153.11970852-122.4286835h560.9917045c84.52610446 0 153.11970853 55.00905179 153.11970854 122.42868349v448.62565195c0.16771045 67.58734131-68.42589359 122.5963931-152.95199808 122.59639394zM114.35834713 515.6896318c-8.55323682 0-15.59707864 5.53444769-15.59707949 12.41057821v224.56439208c0 58.69868359 59.70494633 106.32847263 132.9944458 106.32847265h560.9917045c73.28949947 0 132.9944458-47.79749951 132.9944458-106.32847264V303.87123969c0-58.69868359-59.70494633-106.32847263-132.9944458-106.32847263H231.75571343c-73.28949947 0-132.9944458 47.79749951-132.9944458 106.32847264v100.62631446c0 6.7084209 7.04384183 12.41057906 15.5970795 12.4105782 8.55323682 0 15.59707864-5.53444769 15.59707862-12.4105782v-100.62631446c0-44.94642086 45.78497314-81.50731449 101.96799899-79.49478902h560.99170365c56.18302585-2.01252637 101.96799899 34.54836813 101.967999 79.49478902v448.62565194c0 44.94642086-45.78497314 81.50731449-101.967999 81.50731535H231.75571343c-56.18302585 0-101.96799899-36.5608945-101.96799814-81.50731535V528.10021001c0-6.87613137-6.87613137-12.41057906-15.42936816-12.41057821z" fill="#333333" p-id="1443"></path><path d="M78.63600491 361.22823874h70.94155219v262.13154935H78.63600491z" fill="#333333" p-id="1444"></path><path d="M797.10789157 683.90328758m-40.2505263 0a40.25052545 40.25052545 0 1 0 80.50105175 0 40.25052545 40.25052545 0 1 0-80.50105175 0Z" fill="#333333" p-id="1445"></path><path d="M337.91647562 458.66805365c-5.86986861-1.00626275-11.73973638-1.50939498-17.60960501-1.50939499-35.89005181 0-54.00278903 5.70215815-54.00278903 17.10647362 0 6.54071045 9.22407864 14.92623679 27.83994723 25.1565782 30.69102588 17.94502591 51.15170952 32.70355225 61.38205179 44.61099993 10.06263179 11.90744684 15.26165771 25.65971042 15.26165771 41.59220997 0 24.48573636-10.3980527 45.6172627-31.02644681 63.39457813-20.62839409 17.77731545-48.6360518 26.66597317-84.02297308 26.66597317-20.46068364 0-38.57342086-4.02505271-54.3382091-11.90744682-15.76478909-7.88239497-23.64718405-18.78357905-23.64718407-32.53584179 0-20.79610542 9.89492133-31.36186772 29.51705183-31.36186858 6.54071045 0 15.76478909 2.34794727 27.33681586 7.21155315 12.74599998 4.86360501 22.13778909 7.21155229 28.34307861 7.21155228 31.02644681 0 46.62352543-7.37926274 46.62352545-22.13778909 0-7.88239497-8.72094727-16.77105269-26.33055227-26.33055226-30.02018405-16.26792047-50.14544678-29.68476314-60.37578902-40.25052629-10.06263179-10.56576315-15.26165771-24.3180259-15.26165771-41.25678906 0-24.48573636 9.22407864-45.28184177 27.67223677-62.55602498 18.44815728-17.27418408 55.51218317-25.82742088 111.52749856-25.82742089 27.83994724 0 41.92763089 10.06263179 41.92763089 30.02018405 0 10.3980527-2.34794727 21.97007861-6.87613137 34.5483673-4.52818408 12.57828952-11.57202592 18.95128951-20.6283941 18.9512895-14.75852634 0-22.47321-6.87613137-23.31176313-20.79610455zM570.19555221 465.37647457h-17.44189454c-10.23034225 0-18.6158686 0.16771045-25.49199996 0.50313136-0.8385523 2.85107865-1.50939498 5.53444769-2.18023681 7.88239412-0.50313138 2.68336819-1.17397407 5.36673639-2.01252637 8.2178159-11.06889453 43.2693154-16.60334224 75.63744674-16.60334223 97.10439398 0 19.28671042 3.35421088 29.01392045 10.06263178 29.01392044s13.91997319-4.36047363 21.2992368-13.0814209c7.37926274-8.72094727 14.08768364-13.0814209 20.46068364-13.0814209 5.86986861 0 11.57202592 2.85107865 17.10647361 8.38552637 5.53444769 5.70215815 8.21781589 13.0814209 8.21781589 22.30549954 0 16.26792047-8.38552634 30.18789451-24.98886859 41.75992042-16.60334224 11.57202592-33.37439408 17.44189453-49.97773631 17.44189453-40.08281499 0-60.20807857-28.00765768-60.20807771-83.85526177 0-30.52331543 7.04384183-70.43841996 21.29923678-119.91302492-24.48573636-1.50939498-39.41197314-4.86360501-45.1141313-10.06263177-5.53444769-5.19902593-8.38552634-13.91997319-8.38552636-26.1628418 0-10.06263179 2.85107865-18.28044683 8.72094726-24.65344681 5.86986861-6.20528953 13.41684182-9.3917891 22.47321-9.39178911l33.70981586 3.52192049 5.19902593-49.6423154c0.8385523-8.55323682 4.36047363-15.93249955 10.23034226-22.13778908 6.03757907-6.20528953 13.0814209-9.3917891 21.29923677-9.3917891 17.1064736 0 25.65971042 13.75226274 25.65970957 41.25678906 0 4.86360501-1.50939498 17.60960498-4.5281841 38.4057104 4.19276318-0.50313138 7.54697319-1.00626275 10.0626318-1.50939499 8.05010543-1.17397407 18.78357905-0.50313138 32.36813133 2.01252636 13.58455228 2.51565774 20.29297318 12.57828952 20.29297319 30.02018406 0 10.73347363-3.18649956 19.28671042-9.39178911 25.65970956-6.03757907 6.20528953-13.41684182 9.3917891-22.13778908 9.39178995zM816.39460201 481.97981595c-1.17397407 9.3917891-4.69589455 18.11273637-10.39805271 26.16284179-5.86986861 8.05010543-14.08768364 12.07515814-24.9888686 12.07515815-15.26165771 0-22.80863092-7.88239497-22.8086309-23.81489453 0-2.68336819 0.16771045-5.53444769 0.67084183-8.72094727l2.01252637-25.15657903c-32.8712627 5.86986861-58.69868359 24.98886773-77.4822618 57.52471037l-16.77105268 124.44120899c-1.34168452 9.22407864-5.03131547 17.1064736-11.40431547 23.64718407-6.373 6.373-13.91997319 9.72721002-22.80863177 9.72721001-8.05010543 0-14.08768364-3.01878911-18.28044683-9.3917891-4.19276318-6.20528953-5.53444769-14.25539496-4.36047363-23.98260498l22.13778908-162.67920892 5.36673639-35.55463092c1.50939498-11.57202592 3.52192135-19.7898418 5.70215814-24.82115812 2.18023682-5.03131547 5.86986861-9.22407864 10.73347364-12.57828867 5.03131547-3.52192135 10.73347363-5.19902593 17.44189453-5.19902677 16.10021001 0 24.3180259 9.3917891 24.82115727 28.34307861 28.51078906-21.97007861 58.19555221-33.03897317 89.05428856-33.03897316 23.64718405 0 35.38692044 14.92623679 35.38692044 44.94642084 0 6.373-0.50313138 13.58455228-1.67710459 21.29923679l-2.34794728 16.77105185z" fill="#333333" p-id="1446"></path></svg>