<?xml version="1.0" standalone="no"?><!DOCTYPE svg PUBLIC "-//W3C//DTD SVG 1.1//EN" "http://www.w3.org/Graphics/SVG/1.1/DTD/svg11.dtd"><svg t="1713265600065" class="icon" viewBox="0 0 1024 1024" version="1.1" xmlns="http://www.w3.org/2000/svg" p-id="1533" xmlns:xlink="http://www.w3.org/1999/xlink" width="256" height="256"><path d="M309.14 806.00000033H176.00000033a42.00000033 42.00000033 0 0 1 0-84.00000066h133.13999967a126.04200033 126.04200033 0 1 1 0 84.00000066z m447.72000033-336.00000066H847.99999967a42.00000033 42.00000033 0 0 1 0 84.00000066h-91.13999934a126.04200033 126.04200033 0 1 1 0-84.00000066zM638 554.00000033a42.00000033 42.00000033 0 1 0 0-84.00000066 42.00000033 42.00000033 0 0 0 0 84.00000066z m-126-252a42.00000033 42.00000033 0 0 1 0-84.00000066h335.99999967a42.00000033 42.00000033 0 0 1 0 84.00000066h-335.99999967z m-335.99999967 252a42.00000033 42.00000033 0 0 1 0-84.00000066h209.99999967a42.00000033 42.00000033 0 0 1 0 84.00000066H176.00000033z m252 252a42.00000033 42.00000033 0 1 0 0-84.00000066 42.00000033 42.00000033 0 0 0 0 84.00000066zM260 386a126 126 0 1 1 0-252 126 126 0 0 1 0 252z m0-83.99999967a42.00000033 42.00000033 0 1 0 0-84.00000066 42.00000033 42.00000033 0 0 0 0 84.00000066z m420.00000033 504a42.00000033 42.00000033 0 0 1 0-84.00000066h167.99999934a42.00000033 42.00000033 0 0 1 0 84.00000066h-167.99999934z" fill="#333333" p-id="1534"></path></svg>