<?xml version="1.0" standalone="no"?><!DOCTYPE svg PUBLIC "-//W3C//DTD SVG 1.1//EN" "http://www.w3.org/Graphics/SVG/1.1/DTD/svg11.dtd"><svg t="1713240025874" class="icon" viewBox="0 0 1024 1024" version="1.1" xmlns="http://www.w3.org/2000/svg" p-id="1441" xmlns:xlink="http://www.w3.org/1999/xlink" width="256" height="256"><path d="M410.08264978 858.13439697c-190.37391833 0-346.13439697-155.76047864-346.13439697-346.13439697s155.76047864-346.13439697 346.13439697-346.13439697c109.60922571 0 209.60360706 50.95867511 274.98454871 136.53078991l-124.99297669 74.03430158c-38.45937744-41.34383075-92.30250586-66.34242609-149.03008758-66.34242609-110.57071014 0-201.91173157 90.37953698-201.91173157 201.91173157s90.37953698 201.91173157 201.91173157 201.91173157c56.72758172 0 110.57071014-24.99859534 149.03008758-66.34242609l125.95446112 74.03430158C621.60922571 807.17572186 519.69187549 858.13439697 410.08264978 858.13439697z" fill="#333333" p-id="1442"></path><path d="M756.21704675 540.84453308h-56.72758172v57.68906617h-58.6505506v-57.68906617h-56.72758173v-57.68906616h56.72758173v-57.68906617h58.6505506v57.68906617h56.72758172v57.68906616z m203.83470044 0h-58.65055059v57.68906617h-56.72758173v-57.68906617h-58.6505506v-57.68906616h58.6505506v-57.68906617h56.72758173v57.68906617h58.65055059v57.68906616z" fill="#333333" p-id="1443"></path></svg>