<?xml version="1.0" standalone="no"?><!DOCTYPE svg PUBLIC "-//W3C//DTD SVG 1.1//EN" "http://www.w3.org/Graphics/SVG/1.1/DTD/svg11.dtd"><svg t="1713239972794" class="icon" viewBox="0 0 1024 1024" version="1.1" xmlns="http://www.w3.org/2000/svg" p-id="1441" xmlns:xlink="http://www.w3.org/1999/xlink" width="256" height="256"><path d="M794.50558058 172.99330347a113.00223192 113.00223192 0 0 1 113.00223192 113.00223191v452.00892924a113.00223192 113.00223192 0 0 1-113.00223192 113.00223192H229.49441942a113.00223192 113.00223192 0 0 1-113.00223192-113.00223192V285.99553538a113.00223192 113.00223192 0 0 1 113.00223192-113.00223192h565.01116116z m0 56.50111595H229.49441942a56.50111596 56.50111596 0 0 0-56.10560815 49.8904856L172.99330347 285.99553538v452.00892923a56.50111596 56.50111596 0 0 0 49.89048559 56.10560816L229.49441942 794.50558058h565.01116116a56.50111596 56.50111596 0 0 0 56.10560815-49.89048561L851.00669653 738.00446462V285.99553538a56.50111596 56.50111596 0 0 0-49.89048559-56.10560815L794.50558058 229.49441942zM596.75167433 653.25279028a28.25055836 28.25055836 0 0 1 0 56.50111597h-339.00669654a28.25055836 28.25055836 0 1 1-1e-8-56.50111597h339.00669655z m175.09695848-282.50558057a28.25055836 28.25055836 0 0 1 28.25055836 28.25055836v113.00223193a28.25055836 28.25055836 0 0 1-23.16545802 27.79854932l-5.08510034 0.45200904h-84.80817556v31.97963158a28.25055836 28.25055836 0 0 1-43.90136718 23.50446386L552.85030714 535.50446461a28.25055836 28.25055836 0 0 1 0-47.00892922L643.08258962 428.2653462a28.25055836 28.25055836 0 0 1 43.95786764 23.50446385l-0.05650045 31.97963158h56.50111596V398.99776808a28.25055836 28.25055836 0 0 1 28.25055759-28.25055836zM398.99776808 483.74944164a28.25055836 28.25055836 0 0 1 0 56.50111672H257.74497778a28.25055836 28.25055836 0 0 1 1e-8-56.50111673H398.99776808z m197.75390625-169.50334789a28.25055836 28.25055836 0 0 1 0 56.50111597h-339.00669654a28.25055836 28.25055836 0 0 1-1e-8-56.50111597h339.00669655z" fill="#333333" p-id="1442"></path></svg>