<?xml version="1.0" standalone="no"?><!DOCTYPE svg PUBLIC "-//W3C//DTD SVG 1.1//EN" "http://www.w3.org/Graphics/SVG/1.1/DTD/svg11.dtd"><svg t="1713239989802" class="icon" viewBox="0 0 1024 1024" version="1.1" xmlns="http://www.w3.org/2000/svg" p-id="1441" xmlns:xlink="http://www.w3.org/1999/xlink" width="256" height="256"><path d="M642.2 263.814s-135.122-0.792-247.46000001 0L368.85999999 480.16l77.93000001 18.32c19.754-26.75 121.67600001-46.386 109.946 57.326 0 0 1.646 68.96400001-56.706 58.5-37.192-6.66799999-41.026-47.49-41.02600001-47.49h-98.28599999c-3.034 157.81199999 307.61200001 187.064 294.17-24.686-5.912-93.142-69.89200001-165.994-190.06800001-118.09L474.416 340h167.782zM170.10800001 740.41199999c-14.95-6.16-24.81199999-18.18000001-30.24200001-31.696-11.70000001-35.704-7.85200001-72.312-7.852-111.36999999-0.306-40.31600001-22.042-74.074-54.086-90.144 59.526-28.434 55.20399999-79.78000001 54.086-149.172-0.448-31.282 11.754-72.176 38.09399999-84.038l-18.32-51.178c-68.78000001 20.76-104.36 60.842-104.68199999 135.216-1.874 26.952 3.406 57.526-2.618 82.872-7.736 22.334-23.648 33.312-44.49 33.44v66.01c34.784 0.584 46.88399999 29.77199999 47.108 56.994 0.494 33.736-2.362 72.034 5.23399999 102.646 15.87 50.69200001 30.72 74.496 99.448 91.888z m50.59599999-289.38999999c-35.69-18.70000001-35.69-65.70000001 0-84.4 35.69-18.70000001 80.546 4.8 80.546 42.2 0 37.4-44.856 60.90000001-80.546 42.2z m0 236.98c-35.69-18.70000001-35.69-65.702 0-84.402 35.69-18.70000001 80.544 4.8 80.544 42.2 0 37.4-44.854 60.90000001-80.544 42.2z m633.184 52.40999999c14.95-6.16 24.81199999-18.18000001 30.242-31.696 11.70000001-35.704 7.85200001-72.312 7.852-111.36999999 0.306-40.31600001 22.042-74.074 54.08599999-90.144-59.526-28.434-55.20399999-79.78000001-54.08599999-149.172 0.448-31.282-11.754-72.176-38.094-84.038l18.32-51.178c72.78000001 38.08 104.36 60.842 104.682 135.216 1.874 26.952-3.406 57.526 2.61800001 82.872 7.736 22.334 23.648 33.312 44.48999999 33.44v66.01c-34.784 0.584-46.88399999 29.77199999-47.108 56.994-0.494 33.736 2.36399999 72.034-5.234 102.646-15.87 50.69200001-30.72 74.496-99.448 91.888z m-39.102-64.84599999c-0.61 36.31600001-16.578 73.816-36.64 100.32-7.17200001 9.694-14.926 18.128-23.26 25.3-15.44-12.488-30.68399999-18.92-49.436-23.26200001-3.67-29.66799999 22.6-44.386 27.916-66.29999999 5.6-32.13 3.2-64.07600001 3.2-98.286h78.50999999l-0.28999999 62.228z" fill="#333333" p-id="1442"></path></svg>