<?xml version="1.0" standalone="no"?><!DOCTYPE svg PUBLIC "-//W3C//DTD SVG 1.1//EN" "http://www.w3.org/Graphics/SVG/1.1/DTD/svg11.dtd"><svg t="1713240834308" class="icon" viewBox="0 0 1024 1024" version="1.1" xmlns="http://www.w3.org/2000/svg" p-id="2002" xmlns:xlink="http://www.w3.org/1999/xlink" width="256" height="256"><path d="M440.97972716 410.06166458c92.46896591 0 188.58877334-19.10987245 246.31770174-55.50419769v66.28558809h53.45059891V275.60802306C740.74802781 188.33009719 586.2718033 141.21142578 440.97972716 141.21142578 295.63060606 141.21142578 141.21142578 188.33009719 141.21142578 275.60802306v396.2303749c0 87.27792588 154.41918028 134.39659728 299.76830138 134.39659656v-50.19906845c-152.59375917 0-246.31770173-49.05818026-246.31770246-84.19752811v-119.22278821c57.72892913 36.39432451 153.84873582 55.50419767 246.31770246 55.50419768v-50.19906846c-152.59375917 0-246.31770173-49.05818026-246.31770246-84.19752881V354.55746689c57.72892913 36.39432451 153.84873582 55.50419767 246.31770246 55.50419768z m0-218.65117034c152.59375917 0 246.31770173 49.05818026 246.31770174 84.19752882 0 35.19639206-93.72394257 84.19752883-246.31770174 84.1975281S194.6620247 310.7473709 194.6620247 275.60802306 288.38596726 191.41049424 440.97972716 191.41049424z m239.58646318 246.08952483c-132.68526533 0-202.16533966 47.91729278-202.16533966 95.32118532v254.64618378c0 47.34684904 69.48007432 95.32118606 202.22238388 95.32118605 131.77255478 0 201.08149568-47.23275986 202.10829543-94.29438632H882.78857422V532.82120439c0-47.34684904-69.42303008-95.32118606-202.16533966-95.32118532z m0 50.19906844c98.11636123 0 148.77178496 31.65963974 148.77178496 45.12211688 0 13.51952208-50.5983795 45.1221176-148.71474074 45.12211759-98.11636123 0-148.77178496-31.60259552-148.77178496-45.06507337 0-13.51952208 50.65542373-45.17916182 148.77178496-45.1791611z m0 344.83337402c-98.11636123 0-148.71474074-31.60259552-148.71474074-45.06507337v-60.80932618c33.94141542 17.28445206 83.74117354 28.80742032 148.77178496 28.80742035 65.03061142 0 114.7733246-11.52296828 148.71474074-28.80742035v60.75228195c0 13.51952208-50.5983795 45.1221176-148.71474074 45.1221176z m0-127.26604766c-98.11636123 0-148.71474074-31.65963974-148.71474074-45.12211759V599.27792588c33.94141542 17.34149628 83.74117354 28.86446455 148.77178496 28.86446456 65.03061142 0 114.7733246-11.52296828 148.71474074-28.86446456v60.80932617c0 13.46247713-50.5983795 45.06507264-148.71474074 45.06507263z" fill="#333333" p-id="2003"></path></svg>