<?xml version="1.0" standalone="no"?><!DOCTYPE svg PUBLIC "-//W3C//DTD SVG 1.1//EN" "http://www.w3.org/Graphics/SVG/1.1/DTD/svg11.dtd"><svg t="1713240831487" class="icon" viewBox="0 0 1024 1024" version="1.1" xmlns="http://www.w3.org/2000/svg" p-id="1844" xmlns:xlink="http://www.w3.org/1999/xlink" width="256" height="256"><path d="M758.09375027 125.28125027a105.46875 105.46875 0 0 1 105.29296821 99.28124946L863.56250027 230.75000027v281.32031196a35.15625027 35.15625027 0 0 1-70.06640652 4.07812554L793.24999973 512.07031223V230.75000027a35.15625027 35.15625027 0 0 0-31.04296821-34.91015625L758.09375027 195.59375H265.90624973a35.15625027 35.15625027 0 0 0-34.91015625 31.04296902L230.75000027 230.75000027v562.49999946a35.15625027 35.15625027 0 0 0 31.04296821 34.91015625L265.90624973 828.40625h-0.56249946a35.15625027 35.15625027 0 0 1 4.11328125 70.06640652L265.55468777 898.71874973l-5.83593777-0.17578098a105.46875 105.46875 0 0 1-99.10546848-99.10546848L160.43749973 793.24999973V230.75000027a105.46875 105.46875 0 0 1 99.28125027-105.29296902L265.90624973 125.28125027h492.18750054z m-70.31250054 316.40625a35.15625027 35.15625027 0 0 1 0 70.31249973H336.21875027a35.15625027 35.15625027 0 0 1 0-70.31249973h351.56249946z m0-140.62500027a35.15625027 35.15625027 0 0 1 0 70.31249973H336.21875027a35.15625027 35.15625027 0 1 1 0-70.31249973h351.56249946z" fill="#333333" p-id="1845"></path><path d="M421.5078125 617.46875c6.89062527 0 12.79687527 2.35546902 17.296875 7.03124973a23.203125 23.203125 0 0 1 6.82031223 16.59375027c0 7.24218723-3.05859375 16.10156223-9.03515598 26.82421902l-3.23437473 5.51953071-41.41406304 67.35937554 47.671875 79.9453125c2.81249973 4.8515625 4.95703125 9.0703125 6.46875027 12.65625 2.14453152 5.13281223 3.26953125 10.05468777 3.26953125 14.83593723 0 4.640625-1.0546875 8.96484375-3.1640625 12.90234402a24.32812473 24.32812473 0 0 1-9.10546902 9.4921875 25.06640598 25.06640598 0 0 1-13.04296848 3.48046875 23.90624973 23.90624973 0 0 1-13.42968777-3.69140625 28.65234348 28.65234348 0 0 1-8.54296875-8.61328179l-5.6953125-9.28125-4.39453098-7.31249946-34.10156277-58.35937527-43.10156223 71.82421875c-1.51171902 2.46093777-3.33984348 4.81640598-5.44921848 7.10156277a26.01562473 26.01562473 0 0 1-8.36718777 6.08203098 26.578125 26.578125 0 0 1-11.24999973 2.25000027 23.09765625 23.09765625 0 0 1-16.98046875-6.89062527c-4.57031277-4.67578152-6.82031223-11.21484402-6.82031304-19.33593777 0-7.83984402 2.91796848-16.83984348 8.61328179-27l3.09374946-5.20312446 47.10937554-75.02343777-39.51562554-66.4453125-2.7421875-4.92187473a126.80859402 126.80859402 0 0 1-6.25781196-13.00781277 42.43359402 42.43359402 0 0 1-3.30468777-15.8203125c0-6.08203098 2.46093777-11.49609375 7.20703152-16.10156223 4.71093723-4.57031277 10.546875-6.89062527 17.22656196-6.89062527 7.59375 0 13.81640625 2.56640652 18.28125027 7.73437527 3.09375027 3.51562527 7.03124973 9.38671875 11.8125 17.61328125l31.4296875 55.30078071 37.82812473-62.6484375c2.17968723-3.69140625 4.28906223-6.78515652 6.36328152-9.31640571a24.32812473 24.32812473 0 0 1 8.08593723-6.46875027 23.4140625 23.4140625 0 0 1 10.37109402-2.21484375z m104.80078098 0l5.484375 0.10546875c7.27734375 0.28124973 12.8671875 1.16015625 16.91015652 2.70703098 5.51953152 2.109375 9.703125 6.04687527 12.30468723 11.53125027 1.82812527 3.72656277 3.72656277 9.14062473 5.80078125 16.20703098l33.08203179 84.83203152 33.04687446-84.72656277c2.109375-7.171875 4.0078125-12.55078125 5.80078125-16.31249973a22.28906277 22.28906277 0 0 1 12.33984375-11.53125027c4.0078125-1.54687473 9.56249973-2.42578125 16.76953125-2.70703098l5.73046902-0.10546875h15.96093777l5.80078125 0.24609402c7.91015625 0.6328125 14.5546875 2.67187527 19.89843723 6.1171875 6.50390598 4.21875 10.01953125 11.46093723 10.82812473 21.41015625l0.14062527 4.39453098v191.67187527l-0.17578098 4.67578071c-0.70312473 8.15625027-3.19921902 14.765625-7.66406304 19.54687527a27.45703152 27.45703152 0 0 1-20.98828125 8.57812527 26.92968777 26.92968777 0 0 1-20.39062446-8.57812527c-4.46484402-4.74609375-6.99609402-11.24999973-7.73437527-19.33593777l-0.2109375-5.09765571V714.5l-31.57031277 85.67578152-2.7421875 9.63281196c-0.84375 2.81249973-1.58203125 5.13281223-2.28515598 7.10156277a35.6484375 35.6484375 0 0 1-10.68750027 15.01171902c-5.484375 4.74609375-12.83203098 7.03124973-21.86718696 7.03124973a33.75 33.75 0 0 1-17.71875-4.46484402 32.44921848 32.44921848 0 0 1-11.390625-11.28515625 58.35937527 58.35937527 0 0 1-5.97656304-14.06249946l-4.04296821-14.69531277-30.05859375-79.9453125v126.80859402l-0.17578179 4.67578071c-0.70312473 8.15625027-3.19921902 14.765625-7.62890571 19.54687527a27.24609402 27.24609402 0 0 1-20.84765679 8.57812527 27.24609402 27.24609402 0 0 1-20.53124973-8.4375c-4.46484402-4.74609375-7.03124973-11.24999973-7.73437527-19.44140652l-0.2109375-5.13281223V649.46093777l0.17578179-4.57031277c0.84375-9.703125 4.35937527-16.875 10.79296821-21.02343777 5.2734375-3.44531223 11.91796875-5.44921848 19.75781277-6.1171875l6.15234402-0.24609321h15.85546821z m253.58203152 0a28.4765625 28.4765625 0 0 1 21.69140598 9.00000027c4.67578152 4.99218777 7.31250027 11.88281223 8.08593804 20.56640625l0.2109375 5.41406196-0.03515652 170.82421929h94.5l4.81640598 0.28124973c6.78515652 0.70312473 12.37500027 2.98828152 16.62890679 6.85546875 5.34374973 4.8515625 8.08593723 11.10937527 8.08593723 18.45703125 0 7.45312473-2.7421875 13.7109375-8.08593723 18.42187473a28.75781223 28.75781223 0 0 1-16.41796929 6.5390625l-5.2734375 0.28125054h-118.61718723l-5.2734375-0.2109375c-9.21093777-0.73828125-16.34765625-3.51562527-21.23437527-8.4375-4.95703125-5.02734348-7.69921875-12.30468723-8.36718696-21.79687554l-0.17578179-4.8515625v-186.57421875l0.2109375-4.95703125c0.70312473-8.6484375 3.30468777-15.609375 7.83984402-20.671875a27.66796902 27.66796902 0 0 1 21.44531277-9.14062473z" fill="#333333" p-id="1846"></path></svg>